<svg width="20" height="20" viewBox="0 0 20 20" fill="none" xmlns="http://www.w3.org/2000/svg">
<path d="M5.83301 2.91675L14.1663 7.08341" stroke="#131313" stroke-width="2" stroke-linecap="round" stroke-linejoin="round"/>
<path fill-rule="evenodd" clip-rule="evenodd" d="M10.742 1.2083L17.4087 4.54163C17.9751 4.82307 18.3334 5.40084 18.3337 6.0333V13.975C18.3334 14.6074 17.9751 15.1852 17.4087 15.4666L10.742 18.8C10.2726 19.0349 9.71984 19.0349 9.25037 18.8L2.5837 15.4666C2.01786 15.1815 1.66262 14.6002 1.66703 13.9666V6.0333C1.66737 5.40084 2.02565 4.82307 2.59203 4.54163L9.2587 1.2083C9.72589 0.976141 10.2748 0.976141 10.742 1.2083Z" stroke="#131313" stroke-width="2" stroke-linecap="round" stroke-linejoin="round"/>
<path d="M1.93359 5.1333L10.0003 9.16663L18.0669 5.1333" stroke="#131313" stroke-width="2" stroke-linecap="round" stroke-linejoin="round"/>
<path d="M10 18.9667V9.16675" stroke="#131313" stroke-width="2" stroke-linecap="round" stroke-linejoin="round"/>
</svg>
